<svg xmlns="http://www.w3.org/2000/svg" viewBox="0 0 16 16">
  <defs>
    <style>.canvas{fill: none; opacity: 0;}.light-defaultgrey-10{fill: #212121; opacity: 0.1;}.light-defaultgrey{fill: #212121; opacity: 1;}</style>
  </defs>
  <title>IconLightGroupByType</title>
  <g id="canvas">
    <path class="canvas" d="M16,16H0V0H16Z" />
  </g>
  <g id="level-1">
    <path class="light-defaultgrey-10" d="M14.5,3.5v6h-3v3h-6v-6h3v-3Z" />
    <path class="light-defaultgrey" d="M4,14.016A1.88,1.88,0,0,1,1.9,11.9V9.846Q1.9,8.465.835,8.4V7.6Q1.9,7.535,1.9,6.127v-2A1.892,1.892,0,0,1,4,1.984v.875q-1.088.029-1.087,1.354v2q0,1.436-1.025,1.763v.028q1.025.307,1.025,1.75v1.975a1.858,1.858,0,0,0,.242,1.084A1.02,1.02,0,0,0,4,13.154Z" />
    <path class="light-defaultgrey" d="M14.5,3h-6L8,3.5V6H5.5L5,6.5v6l.5.5h6l.5-.5V10h2.5l.5-.5v-6ZM11,12H6V7h5Zm3-3H12V6.5L11.5,6H9V4h5Z" />
  </g>
</svg>
