<svg xmlns="http://www.w3.org/2000/svg" viewBox="0 0 16 16">
  <defs>
    <style>.canvas{fill: none; opacity: 0;}.light-purple-10{fill: #6936aa; opacity: 0.1;}.light-purple{fill: #6936aa; opacity: 1;}.light-blue{fill: #005dba; opacity: 1;}.cls-1{opacity:0.75;}</style>
  </defs>
  <g id="canvas">
    <path class="canvas" d="M16,16H0V0H16Z" />
  </g>
  <g id="level-1">
    <g class="cls-1">
      <path class="light-purple-10" d="M10.019,5.078,14.5,7.56v5.409l-4.5,2.6-4.5-2.6V7.56Z" />
      <path class="light-purple" d="M14.75,7.128l-4.5-2.6h-.5l-4.5,2.6L5,7.561V12.97l.25.432L9.75,16h.5l4.5-2.6L15,12.97V7.561ZM14,12.681,10.5,14.7V10.354h-1V14.7L6,12.681V7.85l4-2.311L14,7.85Z" />
    </g>
    <path class="light-purple-10" d="M10.019,5l4.508,2.583-4.516,2.633L5.5,7.56Z" />
    <path class="light-purple" d="M10.263,10.648H9.757L5.241,7.991l.008-.866,4.5-2.6h.5l4.5,2.6.028.887ZM6.5,7.569l3.517,2.069,3.515-2.051-3.51-2.012Z" />
    <path class="light-blue" d="M6.854,3.146v.708l-2.5,2.5-.707-.708L5.293,4H0V3H5.293L3.647,1.354,4.354.646Z" />
  </g>
</svg>