<svg xmlns="http://www.w3.org/2000/svg" viewBox="0 0 16 16">
  <defs>
    <style>.canvas{fill: none; opacity: 0;}.light-defaultgrey-10{fill: #212121; opacity: 0.1;}.light-yellow-10{fill: #996f00; opacity: 0.1;}.light-yellow{fill: #996f00; opacity: 1;}.light-defaultgrey{fill: #212121; opacity: 1;}.cls-1{opacity:0.75;}</style>
  </defs>
  <title>IconLightEnumerationPrivate</title>
  <g id="canvas" class="canvas">
    <path class="canvas" d="M16,16H0V0H16Z" />
  </g>
  <g id="level-1">
    <path class="light-defaultgrey-10" d="M15.5,11.5v4h-5v-4Z" />
    <path class="light-yellow-10" d="M9,13.357H1.5V7.643h8v2.943l-.5.5Z" />
    <g class="cls-1">
      <path class="light-yellow-10" d="M9.5,7h-3V2.643h8V7.417a2.962,2.962,0,0,0-4.005.94H10V7.5Z" />
      <path class="light-yellow" d="M8.5,4h4V5h-4ZM14,7.184a2.989,2.989,0,0,1,1,.6V2.5L14.5,2h-8L6,2.5V7H7V3h7ZM12.5,7V6h-4V7h4Z" />
    </g>
    <path class="light-yellow" d="M9,14H1.5L1,13.5v-6L1.5,7h8l.5.5v2.586l-1,1V8H2v5H9ZM3.5,12h4V11h-4Zm4-3h-4v1h4Z" />
    <path class="light-defaultgrey" d="M15.5,11H15V10a2,2,0,0,0-4,0v1h-.5l-.5.5v4l.5.5h5l.5-.5v-4ZM12,10a1,1,0,0,1,2,0v1H12Zm3,5H11V12h4Z" />
  </g>
</svg>
