<svg xmlns="http://www.w3.org/2000/svg" viewBox="0 0 16 16">
  <defs>
    <style>.canvas{fill: none; opacity: 0;}.light-blue-10{fill: #005dba; opacity: 0.1;}.light-blue{fill: #005dba; opacity: 1;}.light-defaultgrey-10{fill: #212121; opacity: 0.1;}.light-defaultgrey{fill: #212121; opacity: 1;}.cls-1{opacity:0.75;}</style>
  </defs>
  <title>IconLightTypePrivate</title>
  <g id="canvas" class="canvas">
    <path class="canvas" d="M16,16H0V0H16Z" />
  </g>
  <g id="level-1">
    <g class="cls-1">
      <path class="light-blue-10" d="M9.5,5h-4V2.5H13V7a3,3,0,0,0-2.816,2H10V5.5Z" />
      <path class="light-blue" d="M10,9h.184A2.966,2.966,0,0,0,10,10Zm3.5-7h-8L5,2.5V5H6V3h7V7a2.966,2.966,0,0,1,1,.184V2.5Z" />
    </g>
    <path class="light-blue-10" d="M9,5.5v7H1.5v-7Z" />
    <path class="light-blue" d="M9,12v1H1.5L1,12.5v-7L1.5,5h8l.5.5v4.586l-1,1V6H2v6Z" />
    <path class="light-defaultgrey-10" d="M15.5,11.5v4h-5v-4Z" />
    <path class="light-defaultgrey" d="M15.5,11H15V10a2,2,0,0,0-4,0v1h-.5l-.5.5v4l.5.5h5l.5-.5v-4ZM12,10a1,1,0,0,1,2,0v1H12Zm3,5H11V12h4Z" />
  </g>
</svg>
